# xmcd
#
# Track frame offsets:
#	150
#	17110
#	32377
#	48484
#	61844
#	76578
#	89986
#	108853
#	125057
#	138717
#
# Disc length: 2043 seconds
#
# Revision: 0
# Processed by: cddbd v1.5.2PL0 Copyright (c) Steve Scherf et al.
# Submitted via: dBpowerAMP V4.0
#
DISCID=8107f90a
DTITLE=Samia - Tan diferente
DYEAR=2006
DGENRE=Grupero
TTITLE0=Me dolió que me engañaras
TTITLE1=Con tu propia moneda
TTITLE2=Parecías tan diferente
TTITLE3=Ven
TTITLE4=Sed de un romántico
TTITLE5=Amor a medias
TTITLE6=Atrapada
TTITLE7=Me perderé
TTITLE8=Espántame el miedo
TTITLE9=Muerto y enterrado
EXTD=
EXTT0=
EXTT1=
EXTT2=
EXTT3=
EXTT4=
EXTT5=
EXTT6=
EXTT7=
EXTT8=
EXTT9=
PLAYORDER=
